<?xml version="1.0" standalone="no"?>
<!DOCTYPE svg PUBLIC "-//W3C//DTD SVG 20010904//EN"
 "http://www.w3.org/TR/2001/REC-SVG-20010904/DTD/svg10.dtd">
<svg version="1.0" xmlns="http://www.w3.org/2000/svg"
 width="1024.000000pt" height="243.000000pt" viewBox="0 0 1024.000000 243.000000"
 preserveAspectRatio="xMidYMid meet">

<g transform="translate(0.000000,243.000000) scale(0.100000,-0.100000)"
fill="#000000" stroke="none">
<path d="M5581 2324 c-91 -19 -168 -60 -227 -119 -59 -59 -88 -109 -109 -192
-21 -81 -22 -1250 -1 -1330 45 -167 164 -279 346 -324 33 -8 108 -14 185 -14
106 0 143 4 200 22 128 40 222 128 268 251 22 56 22 70 25 677 2 434 0 638 -8
680 -35 184 -163 309 -357 350 -85 18 -237 18 -322 -1z m276 -290 c15 -12 37
-36 48 -55 19 -33 20 -55 23 -609 2 -395 0 -591 -8 -626 -17 -82 -75 -124
-169 -124 -62 0 -130 35 -156 80 -19 34 -20 51 -20 640 0 573 1 607 19 643 28
57 74 78 163 74 54 -2 79 -7 100 -23z"/>
<path d="M4078 2313 l-178 -3 0 -564 c0 -309 -3 -746 -7 -970 l-6 -406 174 2
174 3 3 419 2 419 104 -5 c132 -6 171 -24 206 -94 24 -48 25 -54 31 -369 3
-176 10 -330 14 -342 7 -23 10 -23 186 -23 l178 0 -16 38 c-14 31 -18 93 -23
367 -6 305 -9 335 -29 391 -28 78 -77 136 -143 167 l-52 25 40 20 c50 26 110
86 136 136 44 86 62 303 38 453 -28 173 -128 278 -301 317 -74 17 -277 24
-531 19z m420 -297 c58 -30 72 -78 72 -248 0 -152 -6 -187 -43 -227 -34 -36
-73 -48 -184 -56 l-103 -8 0 283 0 282 113 -4 c82 -3 121 -9 145 -22z"/>
<path d="M2618 2303 l-48 -4 0 -140 0 -139 180 0 180 0 0 -844 0 -845 93 5
c50 3 129 7 175 10 l82 6 0 839 0 839 180 0 180 0 0 140 0 140 -487 -2 c-269
-1 -509 -3 -535 -5z"/>
<path d="M6598 2304 c-3 -5 -3 -449 0 -986 l5 -977 71 -5 c39 -3 115 -8 169
-11 l97 -5 0 431 0 432 225 -7 226 -7 -3 143 -3 143 -165 6 c-91 3 -191 7
-222 8 l-58 1 0 276 0 277 285 -7 285 -7 0 145 0 146 -162 0 c-90 0 -294 3
-454 7 -171 3 -293 2 -296 -3z"/>
<path d="M1634 2293 l-191 -3 -6 -677 c-4 -372 -7 -836 -7 -1031 l0 -355 53 6
c45 6 536 44 800 63 l87 6 0 144 0 144 -52 -5 c-29 -3 -134 -10 -233 -15 -99
-6 -208 -13 -243 -16 l-62 -6 2 313 3 314 230 11 c127 6 231 12 233 13 1 0 2
65 2 142 l0 141 -235 -7 -235 -7 0 264 0 265 77 7 c42 3 169 6 284 6 114 0
214 3 223 6 14 5 16 28 16 145 l0 139 -277 -2 c-153 -2 -364 -4 -469 -5z"/>
<path d="M7765 2290 c-4 -6 -4 -463 0 -1016 l8 -1004 21 -5 c20 -4 276 -25
304 -25 9 0 12 212 12 1025 l0 1025 -124 0 c-68 0 -143 3 -168 6 -30 4 -48 2
-53 -6z"/>
<path d="M8390 2279 c0 -8 53 -159 118 -334 65 -176 149 -404 186 -506 l68
-187 -132 -348 c-73 -191 -161 -422 -196 -513 -35 -90 -61 -167 -58 -170 8 -8
315 -38 318 -31 2 3 59 161 127 352 68 192 126 348 129 348 3 0 61 -171 129
-379 l124 -379 31 -6 c76 -13 317 -38 322 -33 6 6 -64 213 -265 788 l-121 346
185 509 c102 280 183 514 180 521 -3 10 -44 13 -160 13 -152 0 -156 0 -164
-22 -4 -13 -56 -164 -116 -335 -59 -172 -111 -313 -114 -313 -3 0 -58 153
-120 340 l-115 340 -101 0 c-56 0 -136 3 -178 6 -63 6 -77 4 -77 -7z"/>
<path d="M103 2263 l-23 -4 0 -1085 0 -1084 20 0 c26 0 277 29 308 36 l22 4 0
460 0 460 68 2 c154 4 200 -11 235 -76 21 -39 22 -56 28 -391 6 -361 12 -415
47 -415 26 0 327 32 330 35 1 1 -3 15 -10 31 -8 20 -14 137 -18 369 -8 381
-17 449 -73 532 -37 54 -68 79 -121 97 l-38 13 55 37 c63 42 117 116 144 196
15 46 18 89 18 270 0 202 -2 219 -23 273 -31 76 -76 134 -136 174 -94 64 -116
67 -481 69 -181 1 -340 0 -352 -3z m584 -319 c58 -43 67 -75 72 -233 7 -282
-34 -338 -256 -355 l-73 -5 0 304 c0 233 3 305 13 309 6 3 58 4 114 3 86 -2
106 -5 130 -23z"/>
</g>
</svg>
