<svg xmlns="http://www.w3.org/2000/svg" width="500.004" height="500.004" viewBox="0 0 228 228">
  <defs>
    <style>
      .cls-1 {
        fill: #056ec6;
        fill-rule: evenodd;
      }
    </style>
  </defs>
  <path id="R" class="cls-1" d="M66.484,224.522q17.146-1.776,34.376-2.438,0.007-46.184.016-92.368,5.944-.149,11.892-0.21c7.927-.08,13.508,1.915,16.745,5.838s4.853,10.831,4.854,20.674q0,19.688.005,39.375A145.2,145.2,0,0,0,135,212.019a49.569,49.569,0,0,0,2.507,9.914q17.536,0.531,35.017,2.215a40.183,40.183,0,0,1-3.123-11.606,145.667,145.667,0,0,1-.628-15.084l-0.009-38.119c0-12.809-1.722-23.152-5.16-30.959a27.794,27.794,0,0,0-17.667-15.806v-0.616c15.012-5.516,22.5-19.328,22.495-41.886l0-13.325c0-16.94-4.068-29.61-12.2-37.86S135.18,6.473,117.467,6.492q-25.48.033-50.944,0.5Q66.5,115.756,66.484,224.522h0Zm34.4-125.6q0-30.789.011-61.579,7.816-.089,15.635-0.11c6.044-.016,10.476,1.744,13.291,5.241s4.223,9.154,4.224,16.945q0,8.305,0,16.611,0,12.309-5.161,17.484c-3.441,3.464-8.6,5.177-15.488,5.231q-6.258.05-12.514,0.177h0Z"/>
</svg>
